<mxfile host="Electron" modified="2024-03-28T16:23:38.587Z" agent="Mozilla/5.0 (Windows NT 10.0; Win64; x64) AppleWebKit/537.36 (KHTML, like Gecko) draw.io/24.1.0 Chrome/120.0.6099.109 Electron/28.1.0 Safari/537.36" etag="FZG3qKoqBY-ASVd5n-cq" version="24.1.0" type="device" pages="4">
  <diagram name="BlueprintV1vsV2" id="74b105a0-9070-1c63-61bc-23e55f88626e">
    <mxGraphModel dx="1434" dy="836" grid="1" gridSize="10" guides="1" tooltips="1" connect="1" arrows="1" fold="1" page="1" pageScale="1.5" pageWidth="1169" pageHeight="826" background="none" math="0" shadow="0">
      <root>
        <mxCell id="0" style=";html=1;" />
        <mxCell id="1" style=";html=1;" parent="0" />
        <mxCell id="bloLvvBlxNtnKp39aOBl-8" style="edgeStyle=orthogonalEdgeStyle;rounded=0;orthogonalLoop=1;jettySize=auto;html=1;exitX=1;exitY=0.5;exitDx=0;exitDy=0;entryX=0;entryY=0.5;entryDx=0;entryDy=0;strokeWidth=2;" edge="1" parent="1" source="bloLvvBlxNtnKp39aOBl-1" target="bloLvvBlxNtnKp39aOBl-2">
          <mxGeometry relative="1" as="geometry" />
        </mxCell>
        <mxCell id="bloLvvBlxNtnKp39aOBl-9" style="edgeStyle=orthogonalEdgeStyle;rounded=0;orthogonalLoop=1;jettySize=auto;html=1;exitX=1;exitY=0.5;exitDx=0;exitDy=0;entryX=0;entryY=0.5;entryDx=0;entryDy=0;strokeWidth=2;" edge="1" parent="1" source="bloLvvBlxNtnKp39aOBl-1" target="bloLvvBlxNtnKp39aOBl-3">
          <mxGeometry relative="1" as="geometry" />
        </mxCell>
        <mxCell id="bloLvvBlxNtnKp39aOBl-1" value="&lt;b&gt;&lt;font style=&quot;font-size: 24px;&quot;&gt;NFVCL&lt;/font&gt;&lt;/b&gt;" style="rounded=1;whiteSpace=wrap;html=1;strokeWidth=2;fillColor=#e1d5e7;strokeColor=#9673a6;" vertex="1" parent="1">
          <mxGeometry x="330" y="210" width="150" height="100" as="geometry" />
        </mxCell>
        <mxCell id="bloLvvBlxNtnKp39aOBl-5" style="edgeStyle=orthogonalEdgeStyle;rounded=0;orthogonalLoop=1;jettySize=auto;html=1;exitX=1;exitY=0.5;exitDx=0;exitDy=0;entryX=0;entryY=0.5;entryDx=0;entryDy=0;strokeWidth=2;" edge="1" parent="1" source="bloLvvBlxNtnKp39aOBl-2" target="bloLvvBlxNtnKp39aOBl-4">
          <mxGeometry relative="1" as="geometry" />
        </mxCell>
        <mxCell id="bloLvvBlxNtnKp39aOBl-2" value="&lt;b style=&quot;font-size: 19px;&quot;&gt;&lt;font style=&quot;font-size: 19px;&quot;&gt;Blueprint V1&lt;/font&gt;&lt;/b&gt;&lt;div style=&quot;font-size: 19px;&quot;&gt;&lt;b style=&quot;&quot;&gt;&lt;font style=&quot;font-size: 19px;&quot;&gt;DEPRECATED&lt;/font&gt;&lt;/b&gt;&lt;/div&gt;" style="rounded=1;whiteSpace=wrap;html=1;strokeWidth=2;fillColor=#dae8fc;strokeColor=#6c8ebf;" vertex="1" parent="1">
          <mxGeometry x="560" y="120" width="250" height="100" as="geometry" />
        </mxCell>
        <mxCell id="bloLvvBlxNtnKp39aOBl-17" value="" style="edgeStyle=orthogonalEdgeStyle;rounded=0;orthogonalLoop=1;jettySize=auto;html=1;strokeWidth=2;" edge="1" parent="1" source="bloLvvBlxNtnKp39aOBl-3" target="bloLvvBlxNtnKp39aOBl-16">
          <mxGeometry relative="1" as="geometry" />
        </mxCell>
        <mxCell id="bloLvvBlxNtnKp39aOBl-3" value="&lt;font style=&quot;font-size: 19px;&quot;&gt;&lt;b&gt;Blueprint V2&lt;/b&gt;&lt;/font&gt;" style="rounded=1;whiteSpace=wrap;html=1;strokeWidth=2;fillColor=#A1C3FC;strokeColor=#6c8ebf;" vertex="1" parent="1">
          <mxGeometry x="560" y="300" width="250" height="100" as="geometry" />
        </mxCell>
        <mxCell id="bloLvvBlxNtnKp39aOBl-13" style="edgeStyle=orthogonalEdgeStyle;rounded=0;orthogonalLoop=1;jettySize=auto;html=1;exitX=1;exitY=0.5;exitDx=0;exitDy=0;entryX=0;entryY=0.5;entryDx=0;entryDy=0;strokeWidth=2;fillColor=#ffe6cc;strokeColor=#d79b00;" edge="1" parent="1" source="bloLvvBlxNtnKp39aOBl-4" target="bloLvvBlxNtnKp39aOBl-6">
          <mxGeometry relative="1" as="geometry" />
        </mxCell>
        <mxCell id="bloLvvBlxNtnKp39aOBl-14" style="edgeStyle=orthogonalEdgeStyle;rounded=0;orthogonalLoop=1;jettySize=auto;html=1;exitX=1;exitY=0.5;exitDx=0;exitDy=0;entryX=0;entryY=0.5;entryDx=0;entryDy=0;strokeWidth=2;fillColor=#ffe6cc;strokeColor=#d79b00;" edge="1" parent="1" source="bloLvvBlxNtnKp39aOBl-4" target="bloLvvBlxNtnKp39aOBl-12">
          <mxGeometry relative="1" as="geometry" />
        </mxCell>
        <mxCell id="bloLvvBlxNtnKp39aOBl-4" value="&lt;b&gt;&lt;font style=&quot;font-size: 21px;&quot;&gt;OSM&lt;/font&gt;&lt;/b&gt;" style="rounded=1;whiteSpace=wrap;html=1;fillColor=#ffe6cc;strokeColor=#d79b00;strokeWidth=2;" vertex="1" parent="1">
          <mxGeometry x="880" y="125" width="130" height="90" as="geometry" />
        </mxCell>
        <mxCell id="bloLvvBlxNtnKp39aOBl-6" value="&lt;b&gt;&lt;font style=&quot;font-size: 19px;&quot;&gt;Openstack&lt;/font&gt;&lt;/b&gt;" style="rounded=1;whiteSpace=wrap;html=1;strokeWidth=2;fillColor=#f5f5f5;strokeColor=#666666;fontColor=#333333;" vertex="1" parent="1">
          <mxGeometry x="1160" y="60" width="150" height="95" as="geometry" />
        </mxCell>
        <mxCell id="bloLvvBlxNtnKp39aOBl-7" value="&lt;font style=&quot;font-size: 19px;&quot;&gt;&lt;b&gt;Proxmox&lt;/b&gt;&lt;/font&gt;" style="rounded=1;whiteSpace=wrap;html=1;strokeWidth=2;fillColor=#f5f5f5;strokeColor=#666666;fontColor=#333333;" vertex="1" parent="1">
          <mxGeometry x="1160" y="270" width="150" height="100" as="geometry" />
        </mxCell>
        <mxCell id="bloLvvBlxNtnKp39aOBl-12" value="&lt;b&gt;&lt;font style=&quot;font-size: 19px;&quot;&gt;K8S&lt;/font&gt;&lt;/b&gt;" style="rounded=1;whiteSpace=wrap;html=1;strokeWidth=2;fillColor=#f5f5f5;strokeColor=#666666;fontColor=#333333;" vertex="1" parent="1">
          <mxGeometry x="1160" y="165" width="150" height="95" as="geometry" />
        </mxCell>
        <mxCell id="bloLvvBlxNtnKp39aOBl-21" style="edgeStyle=orthogonalEdgeStyle;rounded=0;orthogonalLoop=1;jettySize=auto;html=1;exitX=1;exitY=0.5;exitDx=0;exitDy=0;entryX=0;entryY=0.5;entryDx=0;entryDy=0;strokeWidth=2;fillColor=#d5e8d4;strokeColor=#82b366;" edge="1" parent="1" source="bloLvvBlxNtnKp39aOBl-16" target="bloLvvBlxNtnKp39aOBl-7">
          <mxGeometry relative="1" as="geometry">
            <Array as="points">
              <mxPoint x="1110" y="350" />
              <mxPoint x="1110" y="320" />
            </Array>
          </mxGeometry>
        </mxCell>
        <mxCell id="bloLvvBlxNtnKp39aOBl-22" style="edgeStyle=orthogonalEdgeStyle;rounded=0;orthogonalLoop=1;jettySize=auto;html=1;exitX=1;exitY=0.5;exitDx=0;exitDy=0;entryX=0;entryY=0.75;entryDx=0;entryDy=0;strokeWidth=2;fillColor=#d5e8d4;strokeColor=#82b366;" edge="1" parent="1" source="bloLvvBlxNtnKp39aOBl-16" target="bloLvvBlxNtnKp39aOBl-12">
          <mxGeometry relative="1" as="geometry">
            <Array as="points">
              <mxPoint x="1110" y="350" />
              <mxPoint x="1110" y="236" />
            </Array>
          </mxGeometry>
        </mxCell>
        <mxCell id="bloLvvBlxNtnKp39aOBl-23" style="edgeStyle=orthogonalEdgeStyle;rounded=0;orthogonalLoop=1;jettySize=auto;html=1;exitX=1;exitY=0.5;exitDx=0;exitDy=0;entryX=0;entryY=0.75;entryDx=0;entryDy=0;strokeWidth=2;fillColor=#d5e8d4;strokeColor=#82b366;" edge="1" parent="1" source="bloLvvBlxNtnKp39aOBl-16" target="bloLvvBlxNtnKp39aOBl-6">
          <mxGeometry relative="1" as="geometry">
            <Array as="points">
              <mxPoint x="1110" y="350" />
              <mxPoint x="1110" y="131" />
            </Array>
          </mxGeometry>
        </mxCell>
        <mxCell id="bloLvvBlxNtnKp39aOBl-25" style="edgeStyle=orthogonalEdgeStyle;rounded=0;orthogonalLoop=1;jettySize=auto;html=1;exitX=1;exitY=0.5;exitDx=0;exitDy=0;entryX=0;entryY=0.5;entryDx=0;entryDy=0;strokeWidth=2;fillColor=#d5e8d4;strokeColor=#82b366;" edge="1" parent="1" source="bloLvvBlxNtnKp39aOBl-16" target="bloLvvBlxNtnKp39aOBl-24">
          <mxGeometry relative="1" as="geometry">
            <Array as="points">
              <mxPoint x="1110" y="350" />
              <mxPoint x="1110" y="440" />
            </Array>
          </mxGeometry>
        </mxCell>
        <mxCell id="bloLvvBlxNtnKp39aOBl-16" value="&lt;font style=&quot;font-size: 19px;&quot;&gt;&lt;b&gt;Provider&lt;/b&gt;&lt;/font&gt;&lt;div&gt;&lt;font style=&quot;font-size: 19px;&quot;&gt;&lt;b&gt;Adapter&lt;/b&gt;&lt;/font&gt;&lt;/div&gt;" style="rounded=1;whiteSpace=wrap;html=1;strokeWidth=2;fillColor=#d5e8d4;strokeColor=#82b366;" vertex="1" parent="1">
          <mxGeometry x="870" y="300" width="103" height="100" as="geometry" />
        </mxCell>
        <mxCell id="bloLvvBlxNtnKp39aOBl-24" value="&lt;font style=&quot;font-size: 19px;&quot;&gt;&lt;b&gt;...&lt;/b&gt;&lt;/font&gt;" style="rounded=1;whiteSpace=wrap;html=1;strokeWidth=2;fillColor=#f5f5f5;strokeColor=#666666;fontColor=#333333;" vertex="1" parent="1">
          <mxGeometry x="1160" y="390" width="150" height="100" as="geometry" />
        </mxCell>
      </root>
    </mxGraphModel>
  </diagram>
  <diagram id="52vLHwx3qCfg8M5nx8fr" name="DockerCompose">
    <mxGraphModel dx="989" dy="577" grid="1" gridSize="10" guides="1" tooltips="1" connect="1" arrows="1" fold="1" page="1" pageScale="1" pageWidth="827" pageHeight="1169" math="0" shadow="0">
      <root>
        <mxCell id="0" />
        <mxCell id="1" parent="0" />
        <mxCell id="XbXN9dSyZnAmMfZrlhd--47" style="edgeStyle=orthogonalEdgeStyle;rounded=0;orthogonalLoop=1;jettySize=auto;html=1;exitX=1;exitY=0.25;exitDx=0;exitDy=0;entryX=0;entryY=0.5;entryDx=0;entryDy=0;strokeWidth=2;endArrow=none;endFill=0;" edge="1" parent="1" source="XbXN9dSyZnAmMfZrlhd--20" target="XbXN9dSyZnAmMfZrlhd--43">
          <mxGeometry relative="1" as="geometry" />
        </mxCell>
        <mxCell id="XbXN9dSyZnAmMfZrlhd--48" style="edgeStyle=orthogonalEdgeStyle;rounded=0;orthogonalLoop=1;jettySize=auto;html=1;exitX=1;exitY=0.25;exitDx=0;exitDy=0;entryX=0;entryY=0.5;entryDx=0;entryDy=0;strokeWidth=2;endArrow=none;endFill=0;" edge="1" parent="1" source="XbXN9dSyZnAmMfZrlhd--20" target="XbXN9dSyZnAmMfZrlhd--44">
          <mxGeometry relative="1" as="geometry" />
        </mxCell>
        <mxCell id="XbXN9dSyZnAmMfZrlhd--49" style="edgeStyle=orthogonalEdgeStyle;rounded=0;orthogonalLoop=1;jettySize=auto;html=1;exitX=1;exitY=0.25;exitDx=0;exitDy=0;entryX=0;entryY=0.5;entryDx=0;entryDy=0;strokeWidth=2;endArrow=none;endFill=0;" edge="1" parent="1" source="XbXN9dSyZnAmMfZrlhd--20" target="XbXN9dSyZnAmMfZrlhd--45">
          <mxGeometry relative="1" as="geometry" />
        </mxCell>
        <mxCell id="XbXN9dSyZnAmMfZrlhd--20" value="&lt;b&gt;&lt;font style=&quot;font-size: 14px;&quot;&gt;Machine/VM&lt;/font&gt;&lt;/b&gt;" style="rounded=1;whiteSpace=wrap;html=1;verticalAlign=top;movable=1;resizable=1;rotatable=1;deletable=1;editable=1;locked=0;connectable=1;fillColor=#fff2cc;strokeColor=#d6b656;" vertex="1" parent="1">
          <mxGeometry x="270" y="100" width="290" height="320" as="geometry" />
        </mxCell>
        <mxCell id="XbXN9dSyZnAmMfZrlhd--33" value="&lt;b&gt;&lt;font style=&quot;font-size: 14px;&quot;&gt;Docker&lt;/font&gt;&lt;/b&gt;" style="shape=ext;double=1;rounded=1;whiteSpace=wrap;html=1;verticalAlign=top;align=left;spacing=7;fillColor=#d0cee2;strokeColor=#56517e;" vertex="1" parent="1">
          <mxGeometry x="330" y="130" width="180" height="260" as="geometry" />
        </mxCell>
        <mxCell id="XbXN9dSyZnAmMfZrlhd--23" style="rounded=0;orthogonalLoop=1;jettySize=auto;html=1;exitX=1;exitY=0.3333333333333333;exitDx=0;exitDy=0;exitPerimeter=0;entryX=0;entryY=0.25;entryDx=0;entryDy=0;strokeWidth=2;fillColor=#dae8fc;strokeColor=#6c8ebf;movable=1;resizable=1;rotatable=1;deletable=1;editable=1;locked=0;connectable=1;" edge="1" parent="1" source="XbXN9dSyZnAmMfZrlhd--22" target="XbXN9dSyZnAmMfZrlhd--20">
          <mxGeometry relative="1" as="geometry" />
        </mxCell>
        <mxCell id="XbXN9dSyZnAmMfZrlhd--24" style="rounded=0;orthogonalLoop=1;jettySize=auto;html=1;exitX=1;exitY=0.3333333333333333;exitDx=0;exitDy=0;exitPerimeter=0;entryX=0;entryY=0.5;entryDx=0;entryDy=0;strokeWidth=2;fillColor=#dae8fc;strokeColor=#6c8ebf;movable=1;resizable=1;rotatable=1;deletable=1;editable=1;locked=0;connectable=1;" edge="1" parent="1" source="XbXN9dSyZnAmMfZrlhd--22" target="XbXN9dSyZnAmMfZrlhd--20">
          <mxGeometry relative="1" as="geometry" />
        </mxCell>
        <mxCell id="XbXN9dSyZnAmMfZrlhd--25" style="rounded=0;orthogonalLoop=1;jettySize=auto;html=1;exitX=1;exitY=0.3333333333333333;exitDx=0;exitDy=0;exitPerimeter=0;entryX=0;entryY=0.75;entryDx=0;entryDy=0;strokeWidth=2;fillColor=#dae8fc;strokeColor=#6c8ebf;movable=1;resizable=1;rotatable=1;deletable=1;editable=1;locked=0;connectable=1;" edge="1" parent="1" source="XbXN9dSyZnAmMfZrlhd--22" target="XbXN9dSyZnAmMfZrlhd--20">
          <mxGeometry relative="1" as="geometry" />
        </mxCell>
        <mxCell id="XbXN9dSyZnAmMfZrlhd--22" value="NFVCL&lt;div&gt;User&lt;/div&gt;" style="shape=umlActor;verticalLabelPosition=bottom;verticalAlign=top;html=1;outlineConnect=0;movable=1;resizable=1;rotatable=1;deletable=1;editable=1;locked=0;connectable=1;fillColor=#ffcd28;gradientColor=#ffa500;strokeColor=#d79b00;" vertex="1" parent="1">
          <mxGeometry x="140" y="240" width="30" height="60" as="geometry" />
        </mxCell>
        <mxCell id="XbXN9dSyZnAmMfZrlhd--26" value="Port&lt;div&gt;5002&lt;/div&gt;" style="text;html=1;align=center;verticalAlign=middle;resizable=0;points=[];autosize=1;strokeColor=none;fillColor=none;movable=0;rotatable=0;deletable=0;editable=0;locked=1;connectable=0;" vertex="1" parent="1">
          <mxGeometry x="260" y="180" width="50" height="40" as="geometry" />
        </mxCell>
        <mxCell id="XbXN9dSyZnAmMfZrlhd--27" value="Port&lt;div&gt;6379&lt;/div&gt;" style="text;html=1;align=center;verticalAlign=middle;resizable=0;points=[];autosize=1;strokeColor=none;fillColor=none;movable=0;rotatable=0;deletable=0;editable=0;locked=1;connectable=0;" vertex="1" parent="1">
          <mxGeometry x="260" y="260" width="50" height="40" as="geometry" />
        </mxCell>
        <mxCell id="XbXN9dSyZnAmMfZrlhd--28" value="Port&lt;div&gt;27017&lt;/div&gt;" style="text;html=1;align=center;verticalAlign=middle;resizable=0;points=[];autosize=1;strokeColor=none;fillColor=none;movable=0;rotatable=0;deletable=0;editable=0;locked=1;connectable=0;" vertex="1" parent="1">
          <mxGeometry x="260" y="340" width="60" height="40" as="geometry" />
        </mxCell>
        <mxCell id="XbXN9dSyZnAmMfZrlhd--35" style="edgeStyle=orthogonalEdgeStyle;rounded=0;orthogonalLoop=1;jettySize=auto;html=1;exitX=0;exitY=0.5;exitDx=0;exitDy=0;endArrow=none;endFill=0;strokeWidth=2;" edge="1" parent="1" source="XbXN9dSyZnAmMfZrlhd--29">
          <mxGeometry relative="1" as="geometry">
            <mxPoint x="270" y="179.8571428571429" as="targetPoint" />
          </mxGeometry>
        </mxCell>
        <mxCell id="XbXN9dSyZnAmMfZrlhd--38" style="edgeStyle=orthogonalEdgeStyle;rounded=0;orthogonalLoop=1;jettySize=auto;html=1;exitX=1;exitY=0.75;exitDx=0;exitDy=0;entryX=1;entryY=0.25;entryDx=0;entryDy=0;fillColor=#d5e8d4;strokeColor=#82b366;strokeWidth=2;endArrow=none;endFill=0;" edge="1" parent="1" source="XbXN9dSyZnAmMfZrlhd--29" target="XbXN9dSyZnAmMfZrlhd--30">
          <mxGeometry relative="1" as="geometry" />
        </mxCell>
        <mxCell id="XbXN9dSyZnAmMfZrlhd--39" style="edgeStyle=orthogonalEdgeStyle;rounded=0;orthogonalLoop=1;jettySize=auto;html=1;exitX=1;exitY=0.75;exitDx=0;exitDy=0;entryX=1;entryY=0.25;entryDx=0;entryDy=0;fillColor=#d5e8d4;strokeColor=#82b366;strokeWidth=2;endArrow=none;endFill=0;" edge="1" parent="1" source="XbXN9dSyZnAmMfZrlhd--29" target="XbXN9dSyZnAmMfZrlhd--31">
          <mxGeometry relative="1" as="geometry" />
        </mxCell>
        <mxCell id="XbXN9dSyZnAmMfZrlhd--41" style="edgeStyle=orthogonalEdgeStyle;rounded=0;orthogonalLoop=1;jettySize=auto;html=1;exitX=1;exitY=0.5;exitDx=0;exitDy=0;entryX=1;entryY=0.25;entryDx=0;entryDy=0;strokeWidth=2;" edge="1" parent="1" source="XbXN9dSyZnAmMfZrlhd--29" target="XbXN9dSyZnAmMfZrlhd--20">
          <mxGeometry relative="1" as="geometry">
            <Array as="points">
              <mxPoint x="500" y="180" />
              <mxPoint x="500" y="180" />
            </Array>
          </mxGeometry>
        </mxCell>
        <mxCell id="XbXN9dSyZnAmMfZrlhd--29" value="NFVCL" style="rounded=1;whiteSpace=wrap;html=1;fillColor=#dae8fc;strokeColor=#6c8ebf;" vertex="1" parent="1">
          <mxGeometry x="384" y="160" width="60" height="40" as="geometry" />
        </mxCell>
        <mxCell id="XbXN9dSyZnAmMfZrlhd--37" style="edgeStyle=orthogonalEdgeStyle;rounded=0;orthogonalLoop=1;jettySize=auto;html=1;exitX=0;exitY=0.5;exitDx=0;exitDy=0;strokeWidth=2;endArrow=none;endFill=0;" edge="1" parent="1" source="XbXN9dSyZnAmMfZrlhd--30">
          <mxGeometry relative="1" as="geometry">
            <mxPoint x="270" y="259.8571428571429" as="targetPoint" />
          </mxGeometry>
        </mxCell>
        <mxCell id="XbXN9dSyZnAmMfZrlhd--30" value="MongoDB" style="rounded=1;whiteSpace=wrap;html=1;fillColor=#dae8fc;strokeColor=#6c8ebf;" vertex="1" parent="1">
          <mxGeometry x="384" y="240" width="60" height="40" as="geometry" />
        </mxCell>
        <mxCell id="XbXN9dSyZnAmMfZrlhd--36" style="edgeStyle=orthogonalEdgeStyle;rounded=0;orthogonalLoop=1;jettySize=auto;html=1;exitX=0;exitY=0.5;exitDx=0;exitDy=0;strokeWidth=2;endArrow=none;endFill=0;" edge="1" parent="1" source="XbXN9dSyZnAmMfZrlhd--31">
          <mxGeometry relative="1" as="geometry">
            <mxPoint x="270" y="339.8571428571429" as="targetPoint" />
          </mxGeometry>
        </mxCell>
        <mxCell id="XbXN9dSyZnAmMfZrlhd--31" value="Redis" style="rounded=1;whiteSpace=wrap;html=1;fillColor=#dae8fc;strokeColor=#6c8ebf;" vertex="1" parent="1">
          <mxGeometry x="384" y="320" width="60" height="40" as="geometry" />
        </mxCell>
        <mxCell id="XbXN9dSyZnAmMfZrlhd--43" value="Openstack" style="rounded=0;whiteSpace=wrap;html=1;fillColor=#f5f5f5;fontColor=#333333;strokeColor=#666666;" vertex="1" parent="1">
          <mxGeometry x="620" y="120" width="80" height="50" as="geometry" />
        </mxCell>
        <mxCell id="XbXN9dSyZnAmMfZrlhd--44" value="K8S" style="rounded=0;whiteSpace=wrap;html=1;fillColor=#f5f5f5;fontColor=#333333;strokeColor=#666666;" vertex="1" parent="1">
          <mxGeometry x="620" y="180" width="80" height="50" as="geometry" />
        </mxCell>
        <mxCell id="XbXN9dSyZnAmMfZrlhd--45" value="Proxmox" style="rounded=0;whiteSpace=wrap;html=1;fillColor=#f5f5f5;fontColor=#333333;strokeColor=#666666;" vertex="1" parent="1">
          <mxGeometry x="620" y="240" width="80" height="50" as="geometry" />
        </mxCell>
        <mxCell id="XbXN9dSyZnAmMfZrlhd--46" value="..." style="rounded=0;whiteSpace=wrap;html=1;fillColor=#f5f5f5;fontColor=#333333;strokeColor=#666666;" vertex="1" parent="1">
          <mxGeometry x="620" y="300" width="80" height="50" as="geometry" />
        </mxCell>
        <mxCell id="XbXN9dSyZnAmMfZrlhd--50" style="edgeStyle=orthogonalEdgeStyle;rounded=0;orthogonalLoop=1;jettySize=auto;html=1;exitX=1;exitY=0.25;exitDx=0;exitDy=0;entryX=-0.052;entryY=0.517;entryDx=0;entryDy=0;entryPerimeter=0;strokeWidth=2;endArrow=none;endFill=0;" edge="1" parent="1" source="XbXN9dSyZnAmMfZrlhd--20" target="XbXN9dSyZnAmMfZrlhd--46">
          <mxGeometry relative="1" as="geometry" />
        </mxCell>
      </root>
    </mxGraphModel>
  </diagram>
  <diagram id="5V8iQhxUPND6ssQjN9cU" name="BlueV2">
    <mxGraphModel dx="1434" dy="836" grid="1" gridSize="10" guides="1" tooltips="1" connect="1" arrows="1" fold="1" page="1" pageScale="1" pageWidth="827" pageHeight="1169" math="0" shadow="0">
      <root>
        <mxCell id="0" />
        <mxCell id="1" parent="0" />
      </root>
    </mxGraphModel>
  </diagram>
  <diagram id="1S0dZkY1Dkdkdsg6EXZx" name="General Scheme">
    <mxGraphModel dx="989" dy="1746" grid="1" gridSize="10" guides="1" tooltips="1" connect="1" arrows="1" fold="1" page="1" pageScale="1" pageWidth="827" pageHeight="1169" math="0" shadow="0">
      <root>
        <mxCell id="0" />
        <mxCell id="1" parent="0" />
        <mxCell id="FfZv3YG9JdOCyFWRbvzE-40" value="Blueprint" style="rounded=1;whiteSpace=wrap;html=1;horizontal=1;verticalAlign=top;fillColor=#92B2FC;strokeColor=#6c8ebf;" vertex="1" parent="1">
          <mxGeometry x="120" y="220" width="240" height="100" as="geometry" />
        </mxCell>
        <mxCell id="FfZv3YG9JdOCyFWRbvzE-39" value="Blueprint" style="rounded=1;whiteSpace=wrap;html=1;horizontal=1;verticalAlign=top;fillColor=#C2D5FC;strokeColor=#6c8ebf;" vertex="1" parent="1">
          <mxGeometry x="130" y="230" width="240" height="110" as="geometry" />
        </mxCell>
        <mxCell id="FfZv3YG9JdOCyFWRbvzE-8" value="&lt;font style=&quot;font-size: 14px;&quot;&gt;NFVCL Topology&lt;/font&gt;" style="rounded=1;whiteSpace=wrap;html=1;verticalAlign=top;fillColor=#fff2cc;strokeColor=#d6b656;fontStyle=1" vertex="1" parent="1">
          <mxGeometry x="420" y="90" width="271" height="260" as="geometry" />
        </mxCell>
        <mxCell id="FfZv3YG9JdOCyFWRbvzE-4" value="&lt;div&gt;Provider&lt;/div&gt;&lt;div&gt;...&lt;/div&gt;" style="rounded=1;whiteSpace=wrap;html=1;fontStyle=1" vertex="1" parent="1">
          <mxGeometry x="320" y="500" width="120" height="60" as="geometry" />
        </mxCell>
        <mxCell id="FfZv3YG9JdOCyFWRbvzE-93" style="edgeStyle=orthogonalEdgeStyle;rounded=0;orthogonalLoop=1;jettySize=auto;html=1;exitX=0.5;exitY=1;exitDx=0;exitDy=0;entryX=0.5;entryY=0;entryDx=0;entryDy=0;" edge="1" parent="1" source="FfZv3YG9JdOCyFWRbvzE-7" target="FfZv3YG9JdOCyFWRbvzE-86">
          <mxGeometry relative="1" as="geometry" />
        </mxCell>
        <mxCell id="FfZv3YG9JdOCyFWRbvzE-94" style="edgeStyle=orthogonalEdgeStyle;rounded=0;orthogonalLoop=1;jettySize=auto;html=1;exitX=0.5;exitY=1;exitDx=0;exitDy=0;entryX=0.5;entryY=0;entryDx=0;entryDy=0;" edge="1" parent="1" source="FfZv3YG9JdOCyFWRbvzE-7" target="FfZv3YG9JdOCyFWRbvzE-91">
          <mxGeometry relative="1" as="geometry" />
        </mxCell>
        <mxCell id="FfZv3YG9JdOCyFWRbvzE-7" value="&lt;b&gt;&lt;font style=&quot;font-size: 16px;&quot;&gt;Blueprint&lt;/font&gt;&lt;/b&gt;" style="rounded=1;whiteSpace=wrap;html=1;horizontal=1;verticalAlign=bottom;align=right;fillColor=#dae8fc;strokeColor=#6c8ebf;spacingRight=12;spacingLeft=0;" vertex="1" parent="1">
          <mxGeometry x="140" y="240" width="240" height="110" as="geometry" />
        </mxCell>
        <mxCell id="FfZv3YG9JdOCyFWRbvzE-9" value="&lt;b&gt;&lt;font style=&quot;font-size: 19px;&quot;&gt;NFVCL NBI&lt;/font&gt;&lt;/b&gt;" style="rounded=1;whiteSpace=wrap;html=1;fillColor=#dae8fc;strokeColor=#6c8ebf;" vertex="1" parent="1">
          <mxGeometry x="110" y="20" width="676.45" height="40" as="geometry" />
        </mxCell>
        <mxCell id="FfZv3YG9JdOCyFWRbvzE-13" style="edgeStyle=orthogonalEdgeStyle;rounded=0;orthogonalLoop=1;jettySize=auto;html=1;entryX=0.5;entryY=0;entryDx=0;entryDy=0;fontSize=11;strokeWidth=3;" edge="1" parent="1" source="FfZv3YG9JdOCyFWRbvzE-10" target="FfZv3YG9JdOCyFWRbvzE-9">
          <mxGeometry relative="1" as="geometry" />
        </mxCell>
        <mxCell id="FfZv3YG9JdOCyFWRbvzE-10" value="&lt;b style=&quot;font-size: 15px;&quot;&gt;&lt;font style=&quot;font-size: 15px;&quot;&gt;NFVCL&lt;/font&gt;&lt;/b&gt;&lt;div style=&quot;font-size: 15px;&quot;&gt;&lt;b style=&quot;&quot;&gt;&lt;font style=&quot;font-size: 15px;&quot;&gt;User&lt;/font&gt;&lt;/b&gt;&lt;/div&gt;" style="shape=umlActor;verticalLabelPosition=bottom;verticalAlign=middle;html=1;outlineConnect=0;horizontal=0;strokeWidth=2;fillColor=#e6d0de;gradientColor=#d5739d;strokeColor=#996185;" vertex="1" parent="1">
          <mxGeometry x="433.23" y="-70" width="30" height="60" as="geometry" />
        </mxCell>
        <mxCell id="FfZv3YG9JdOCyFWRbvzE-99" style="edgeStyle=orthogonalEdgeStyle;rounded=0;orthogonalLoop=1;jettySize=auto;html=1;exitX=0.391;exitY=0.998;exitDx=0;exitDy=0;entryX=0.25;entryY=0;entryDx=0;entryDy=0;exitPerimeter=0;strokeWidth=2;" edge="1" parent="1" source="FfZv3YG9JdOCyFWRbvzE-21" target="FfZv3YG9JdOCyFWRbvzE-96">
          <mxGeometry relative="1" as="geometry" />
        </mxCell>
        <mxCell id="FfZv3YG9JdOCyFWRbvzE-102" style="edgeStyle=orthogonalEdgeStyle;rounded=0;orthogonalLoop=1;jettySize=auto;html=1;exitX=0.25;exitY=1;exitDx=0;exitDy=0;strokeWidth=2;" edge="1" parent="1" source="FfZv3YG9JdOCyFWRbvzE-21" target="FfZv3YG9JdOCyFWRbvzE-95">
          <mxGeometry relative="1" as="geometry" />
        </mxCell>
        <mxCell id="FfZv3YG9JdOCyFWRbvzE-103" style="edgeStyle=orthogonalEdgeStyle;rounded=0;orthogonalLoop=1;jettySize=auto;html=1;exitX=0.75;exitY=1;exitDx=0;exitDy=0;entryX=0.5;entryY=0;entryDx=0;entryDy=0;strokeWidth=2;" edge="1" parent="1" source="FfZv3YG9JdOCyFWRbvzE-21" target="FfZv3YG9JdOCyFWRbvzE-97">
          <mxGeometry relative="1" as="geometry" />
        </mxCell>
        <mxCell id="FfZv3YG9JdOCyFWRbvzE-21" value="Blueprints LCM&lt;div&gt;Manager&lt;/div&gt;" style="rounded=1;whiteSpace=wrap;html=1;fontStyle=1;fillColor=#FFD966;" vertex="1" parent="1">
          <mxGeometry x="196.55" y="110" width="120" height="60" as="geometry" />
        </mxCell>
        <mxCell id="FfZv3YG9JdOCyFWRbvzE-22" value="Status" style="rounded=1;whiteSpace=wrap;html=1;fontStyle=1" vertex="1" parent="1">
          <mxGeometry x="150" y="270" width="60" height="30" as="geometry" />
        </mxCell>
        <mxCell id="FfZv3YG9JdOCyFWRbvzE-23" value="Resources" style="rounded=1;whiteSpace=wrap;html=1;fontStyle=1" vertex="1" parent="1">
          <mxGeometry x="220" y="270" width="70" height="30" as="geometry" />
        </mxCell>
        <mxCell id="FfZv3YG9JdOCyFWRbvzE-33" value="" style="group;fontStyle=1" vertex="1" connectable="0" parent="1">
          <mxGeometry x="59" y="620" width="100" height="85" as="geometry" />
        </mxCell>
        <mxCell id="FfZv3YG9JdOCyFWRbvzE-30" value="" style="rounded=1;whiteSpace=wrap;html=1;" vertex="1" parent="FfZv3YG9JdOCyFWRbvzE-33">
          <mxGeometry width="80" height="65" as="geometry" />
        </mxCell>
        <mxCell id="FfZv3YG9JdOCyFWRbvzE-31" value="" style="rounded=1;whiteSpace=wrap;html=1;" vertex="1" parent="FfZv3YG9JdOCyFWRbvzE-33">
          <mxGeometry x="10" y="10" width="80" height="65" as="geometry" />
        </mxCell>
        <mxCell id="FfZv3YG9JdOCyFWRbvzE-32" value="Openstack" style="rounded=1;whiteSpace=wrap;html=1;fontStyle=1" vertex="1" parent="FfZv3YG9JdOCyFWRbvzE-33">
          <mxGeometry x="20" y="20" width="80" height="65" as="geometry" />
        </mxCell>
        <mxCell id="FfZv3YG9JdOCyFWRbvzE-34" value="" style="group;fontStyle=1" vertex="1" connectable="0" parent="1">
          <mxGeometry x="190" y="620" width="100" height="85" as="geometry" />
        </mxCell>
        <mxCell id="FfZv3YG9JdOCyFWRbvzE-35" value="" style="rounded=1;whiteSpace=wrap;html=1;" vertex="1" parent="FfZv3YG9JdOCyFWRbvzE-34">
          <mxGeometry width="80" height="65" as="geometry" />
        </mxCell>
        <mxCell id="FfZv3YG9JdOCyFWRbvzE-36" value="" style="rounded=1;whiteSpace=wrap;html=1;" vertex="1" parent="FfZv3YG9JdOCyFWRbvzE-34">
          <mxGeometry x="10" y="10" width="80" height="65" as="geometry" />
        </mxCell>
        <mxCell id="FfZv3YG9JdOCyFWRbvzE-37" value="Proxmox" style="rounded=1;whiteSpace=wrap;html=1;fontStyle=1" vertex="1" parent="FfZv3YG9JdOCyFWRbvzE-34">
          <mxGeometry x="20" y="20" width="80" height="65" as="geometry" />
        </mxCell>
        <mxCell id="FfZv3YG9JdOCyFWRbvzE-38" value="Blue&lt;br&gt;Topology" style="rounded=1;whiteSpace=wrap;html=1;fontStyle=1" vertex="1" parent="1">
          <mxGeometry x="300" y="270" width="70" height="30" as="geometry" />
        </mxCell>
        <mxCell id="FfZv3YG9JdOCyFWRbvzE-42" value="Configurators" style="rounded=1;whiteSpace=wrap;html=1;fontStyle=1" vertex="1" parent="1">
          <mxGeometry x="150" y="310" width="90" height="30" as="geometry" />
        </mxCell>
        <mxCell id="FfZv3YG9JdOCyFWRbvzE-45" value="" style="shape=trapezoid;perimeter=trapezoidPerimeter;whiteSpace=wrap;html=1;fixedSize=1;strokeWidth=1;fillColor=#f5f5f5;gradientColor=#b3b3b3;strokeColor=#666666;" vertex="1" parent="1">
          <mxGeometry x="587" y="508.65" width="240" height="17.08" as="geometry" />
        </mxCell>
        <mxCell id="FfZv3YG9JdOCyFWRbvzE-46" value="..." style="rounded=0;whiteSpace=wrap;html=1;fillColor=#dae8fc;strokeColor=#6c8ebf;fontStyle=1" vertex="1" parent="1">
          <mxGeometry x="750.4462068965518" y="525.7333333333333" width="53.103448275862064" height="25.625" as="geometry" />
        </mxCell>
        <mxCell id="FfZv3YG9JdOCyFWRbvzE-79" style="edgeStyle=orthogonalEdgeStyle;rounded=0;orthogonalLoop=1;jettySize=auto;html=1;exitX=0.5;exitY=1;exitDx=0;exitDy=0;entryX=0.5;entryY=0;entryDx=0;entryDy=0;fillColor=#d5e8d4;strokeColor=#82b366;strokeWidth=2;" edge="1" parent="1" source="FfZv3YG9JdOCyFWRbvzE-47" target="FfZv3YG9JdOCyFWRbvzE-73">
          <mxGeometry relative="1" as="geometry">
            <Array as="points">
              <mxPoint x="707" y="610" />
              <mxPoint x="510" y="610" />
            </Array>
          </mxGeometry>
        </mxCell>
        <mxCell id="FfZv3YG9JdOCyFWRbvzE-47" value="K8S API" style="rounded=0;whiteSpace=wrap;html=1;fillColor=#d5e8d4;strokeColor=#82b366;fontStyle=1" vertex="1" parent="1">
          <mxGeometry x="680.448275862069" y="525.7333333333333" width="53.103448275862064" height="25.625" as="geometry" />
        </mxCell>
        <mxCell id="FfZv3YG9JdOCyFWRbvzE-56" value="" style="edgeStyle=orthogonalEdgeStyle;rounded=0;orthogonalLoop=1;jettySize=auto;html=1;fillColor=#ffe6cc;strokeColor=#d79b00;" edge="1" parent="1" source="FfZv3YG9JdOCyFWRbvzE-48" target="FfZv3YG9JdOCyFWRbvzE-32">
          <mxGeometry relative="1" as="geometry" />
        </mxCell>
        <mxCell id="FfZv3YG9JdOCyFWRbvzE-55" style="edgeStyle=orthogonalEdgeStyle;rounded=0;orthogonalLoop=1;jettySize=auto;html=1;entryX=0.5;entryY=0;entryDx=0;entryDy=0;fillColor=#ffe6cc;strokeColor=#d79b00;strokeWidth=2;exitX=0.5;exitY=1;exitDx=0;exitDy=0;" edge="1" parent="1" source="FfZv3YG9JdOCyFWRbvzE-54" target="FfZv3YG9JdOCyFWRbvzE-32">
          <mxGeometry relative="1" as="geometry">
            <Array as="points">
              <mxPoint x="637" y="590" />
              <mxPoint x="119" y="590" />
            </Array>
          </mxGeometry>
        </mxCell>
        <mxCell id="FfZv3YG9JdOCyFWRbvzE-54" value="OS API" style="rounded=0;whiteSpace=wrap;html=1;fillColor=#ffe6cc;strokeColor=#d79b00;fontStyle=1" vertex="1" parent="1">
          <mxGeometry x="610.4503448275862" y="525.7333333333333" width="53.103448275862064" height="25.625" as="geometry" />
        </mxCell>
        <mxCell id="FfZv3YG9JdOCyFWRbvzE-59" value="" style="endArrow=classic;html=1;rounded=0;edgeStyle=orthogonalEdgeStyle;entryX=0.474;entryY=-0.01;entryDx=0;entryDy=0;entryPerimeter=0;strokeWidth=2;exitX=0.928;exitY=1.04;exitDx=0;exitDy=0;exitPerimeter=0;" edge="1" parent="1" source="FfZv3YG9JdOCyFWRbvzE-9" target="FfZv3YG9JdOCyFWRbvzE-45">
          <mxGeometry width="50" height="50" relative="1" as="geometry">
            <mxPoint x="764" y="8" as="sourcePoint" />
            <mxPoint x="700" y="460" as="targetPoint" />
            <Array as="points">
              <mxPoint x="738" y="390" />
              <mxPoint x="701" y="390" />
            </Array>
          </mxGeometry>
        </mxCell>
        <mxCell id="FfZv3YG9JdOCyFWRbvzE-65" value="" style="group;fontStyle=1" vertex="1" connectable="0" parent="1">
          <mxGeometry x="59" y="500" width="120" height="75.62833333333333" as="geometry" />
        </mxCell>
        <mxCell id="FfZv3YG9JdOCyFWRbvzE-2" value="&lt;div&gt;Provider&lt;/div&gt;Openstack" style="rounded=1;whiteSpace=wrap;html=1;fillColor=#fad7ac;strokeColor=#b46504;fontStyle=1" vertex="1" parent="FfZv3YG9JdOCyFWRbvzE-65">
          <mxGeometry width="120" height="60" as="geometry" />
        </mxCell>
        <mxCell id="FfZv3YG9JdOCyFWRbvzE-48" value="OS API" style="rounded=0;whiteSpace=wrap;html=1;fillColor=#ffe6cc;strokeColor=#d79b00;fontStyle=1" vertex="1" parent="FfZv3YG9JdOCyFWRbvzE-65">
          <mxGeometry x="33.45034482758609" y="50.00333333333333" width="53.103448275862064" height="25.625" as="geometry" />
        </mxCell>
        <mxCell id="FfZv3YG9JdOCyFWRbvzE-66" value="" style="group" vertex="1" connectable="0" parent="1">
          <mxGeometry x="190" y="500" width="120" height="75.62833333333333" as="geometry" />
        </mxCell>
        <mxCell id="FfZv3YG9JdOCyFWRbvzE-3" value="&lt;div&gt;Provider&lt;/div&gt;&lt;div&gt;Proxmox&lt;/div&gt;" style="rounded=1;whiteSpace=wrap;html=1;fillColor=#d0cee2;strokeColor=#56517e;fontStyle=1" vertex="1" parent="FfZv3YG9JdOCyFWRbvzE-66">
          <mxGeometry width="120" height="60" as="geometry" />
        </mxCell>
        <mxCell id="FfZv3YG9JdOCyFWRbvzE-63" value="PVE API" style="rounded=0;whiteSpace=wrap;html=1;fillColor=#e1d5e7;strokeColor=#9673a6;fontStyle=1" vertex="1" parent="FfZv3YG9JdOCyFWRbvzE-66">
          <mxGeometry x="33.45034482758609" y="50.00333333333333" width="53.103448275862064" height="25.625" as="geometry" />
        </mxCell>
        <mxCell id="FfZv3YG9JdOCyFWRbvzE-67" style="edgeStyle=orthogonalEdgeStyle;rounded=0;orthogonalLoop=1;jettySize=auto;html=1;exitX=0.5;exitY=1;exitDx=0;exitDy=0;entryX=0.5;entryY=0;entryDx=0;entryDy=0;fillColor=#e1d5e7;strokeColor=#9673a6;strokeWidth=2;" edge="1" parent="1" source="FfZv3YG9JdOCyFWRbvzE-63" target="FfZv3YG9JdOCyFWRbvzE-37">
          <mxGeometry relative="1" as="geometry" />
        </mxCell>
        <mxCell id="FfZv3YG9JdOCyFWRbvzE-68" value="&lt;div&gt;&lt;font style=&quot;font-size: 10px;&quot;&gt;Provider&lt;/font&gt;&lt;/div&gt;&lt;div&gt;&lt;font style=&quot;font-size: 13px;&quot;&gt;Native&lt;/font&gt;&lt;/div&gt;&lt;div&gt;K8S&lt;/div&gt;" style="rounded=1;whiteSpace=wrap;html=1;fillColor=#cdeb8b;strokeColor=#36393d;fontStyle=1" vertex="1" parent="1">
          <mxGeometry x="450" y="500" width="120" height="60" as="geometry" />
        </mxCell>
        <mxCell id="FfZv3YG9JdOCyFWRbvzE-70" value="" style="group;fontStyle=1" vertex="1" connectable="0" parent="1">
          <mxGeometry x="450" y="620" width="100" height="85" as="geometry" />
        </mxCell>
        <mxCell id="FfZv3YG9JdOCyFWRbvzE-71" value="" style="rounded=1;whiteSpace=wrap;html=1;" vertex="1" parent="FfZv3YG9JdOCyFWRbvzE-70">
          <mxGeometry width="80" height="65" as="geometry" />
        </mxCell>
        <mxCell id="FfZv3YG9JdOCyFWRbvzE-72" value="" style="rounded=1;whiteSpace=wrap;html=1;" vertex="1" parent="FfZv3YG9JdOCyFWRbvzE-70">
          <mxGeometry x="10" y="10" width="80" height="65" as="geometry" />
        </mxCell>
        <mxCell id="FfZv3YG9JdOCyFWRbvzE-73" value="K8S Cluster" style="rounded=1;whiteSpace=wrap;html=1;fontStyle=1" vertex="1" parent="FfZv3YG9JdOCyFWRbvzE-70">
          <mxGeometry x="20" y="20" width="80" height="65" as="geometry" />
        </mxCell>
        <mxCell id="FfZv3YG9JdOCyFWRbvzE-74" style="edgeStyle=orthogonalEdgeStyle;rounded=0;orthogonalLoop=1;jettySize=auto;html=1;exitX=0.5;exitY=1;exitDx=0;exitDy=0;entryX=0.5;entryY=0;entryDx=0;entryDy=0;fillColor=#d5e8d4;strokeColor=#82b366;strokeWidth=2;" edge="1" parent="1" source="FfZv3YG9JdOCyFWRbvzE-75" target="FfZv3YG9JdOCyFWRbvzE-73">
          <mxGeometry relative="1" as="geometry">
            <Array as="points">
              <mxPoint x="487" y="610" />
              <mxPoint x="510" y="610" />
            </Array>
          </mxGeometry>
        </mxCell>
        <mxCell id="FfZv3YG9JdOCyFWRbvzE-76" value="" style="edgeStyle=orthogonalEdgeStyle;rounded=0;orthogonalLoop=1;jettySize=auto;html=1;exitX=0.5;exitY=1;exitDx=0;exitDy=0;entryX=0.5;entryY=0;entryDx=0;entryDy=0;" edge="1" parent="1" source="FfZv3YG9JdOCyFWRbvzE-68" target="FfZv3YG9JdOCyFWRbvzE-75">
          <mxGeometry relative="1" as="geometry">
            <mxPoint x="510" y="560" as="sourcePoint" />
            <mxPoint x="510" y="650" as="targetPoint" />
          </mxGeometry>
        </mxCell>
        <mxCell id="FfZv3YG9JdOCyFWRbvzE-75" value="Helm" style="rounded=0;whiteSpace=wrap;html=1;fillColor=#d5e8d4;strokeColor=#82b366;fontStyle=1" vertex="1" parent="1">
          <mxGeometry x="460.00034482758616" y="550.0033333333333" width="53.103448275862064" height="25.625" as="geometry" />
        </mxCell>
        <mxCell id="FfZv3YG9JdOCyFWRbvzE-78" style="edgeStyle=orthogonalEdgeStyle;rounded=0;orthogonalLoop=1;jettySize=auto;html=1;exitX=0.5;exitY=1;exitDx=0;exitDy=0;entryX=0.5;entryY=0;entryDx=0;entryDy=0;fillColor=#d5e8d4;strokeColor=#82b366;strokeWidth=2;" edge="1" parent="1" source="FfZv3YG9JdOCyFWRbvzE-77" target="FfZv3YG9JdOCyFWRbvzE-73">
          <mxGeometry relative="1" as="geometry">
            <Array as="points">
              <mxPoint x="540" y="610" />
              <mxPoint x="510" y="610" />
            </Array>
          </mxGeometry>
        </mxCell>
        <mxCell id="FfZv3YG9JdOCyFWRbvzE-77" value="K8S API" style="rounded=0;whiteSpace=wrap;html=1;fillColor=#d5e8d4;strokeColor=#82b366;fontStyle=1" vertex="1" parent="1">
          <mxGeometry x="513.1003448275861" y="550.0033333333333" width="53.103448275862064" height="25.625" as="geometry" />
        </mxCell>
        <mxCell id="FfZv3YG9JdOCyFWRbvzE-80" value="" style="group" vertex="1" connectable="0" parent="1">
          <mxGeometry x="320" y="620" width="100" height="85" as="geometry" />
        </mxCell>
        <mxCell id="FfZv3YG9JdOCyFWRbvzE-81" value="" style="rounded=1;whiteSpace=wrap;html=1;" vertex="1" parent="FfZv3YG9JdOCyFWRbvzE-80">
          <mxGeometry width="80" height="65" as="geometry" />
        </mxCell>
        <mxCell id="FfZv3YG9JdOCyFWRbvzE-82" value="" style="rounded=1;whiteSpace=wrap;html=1;" vertex="1" parent="FfZv3YG9JdOCyFWRbvzE-80">
          <mxGeometry x="10" y="10" width="80" height="65" as="geometry" />
        </mxCell>
        <mxCell id="FfZv3YG9JdOCyFWRbvzE-83" value="&lt;b&gt;...&lt;/b&gt;" style="rounded=1;whiteSpace=wrap;html=1;" vertex="1" parent="FfZv3YG9JdOCyFWRbvzE-80">
          <mxGeometry x="20" y="20" width="80" height="65" as="geometry" />
        </mxCell>
        <mxCell id="FfZv3YG9JdOCyFWRbvzE-84" style="edgeStyle=orthogonalEdgeStyle;rounded=0;orthogonalLoop=1;jettySize=auto;html=1;entryX=0.5;entryY=0;entryDx=0;entryDy=0;strokeWidth=2;" edge="1" parent="1" target="FfZv3YG9JdOCyFWRbvzE-83">
          <mxGeometry relative="1" as="geometry">
            <mxPoint x="380" y="560" as="sourcePoint" />
          </mxGeometry>
        </mxCell>
        <mxCell id="FfZv3YG9JdOCyFWRbvzE-88" style="edgeStyle=orthogonalEdgeStyle;rounded=0;orthogonalLoop=1;jettySize=auto;html=1;exitX=0.5;exitY=1;exitDx=0;exitDy=0;" edge="1" parent="1" source="FfZv3YG9JdOCyFWRbvzE-86" target="FfZv3YG9JdOCyFWRbvzE-2">
          <mxGeometry relative="1" as="geometry" />
        </mxCell>
        <mxCell id="FfZv3YG9JdOCyFWRbvzE-89" style="edgeStyle=orthogonalEdgeStyle;rounded=0;orthogonalLoop=1;jettySize=auto;html=1;exitX=0.5;exitY=1;exitDx=0;exitDy=0;entryX=0.5;entryY=0;entryDx=0;entryDy=0;" edge="1" parent="1" source="FfZv3YG9JdOCyFWRbvzE-86" target="FfZv3YG9JdOCyFWRbvzE-3">
          <mxGeometry relative="1" as="geometry" />
        </mxCell>
        <mxCell id="FfZv3YG9JdOCyFWRbvzE-90" style="edgeStyle=orthogonalEdgeStyle;rounded=0;orthogonalLoop=1;jettySize=auto;html=1;exitX=0.5;exitY=1;exitDx=0;exitDy=0;entryX=0.5;entryY=0;entryDx=0;entryDy=0;" edge="1" parent="1" source="FfZv3YG9JdOCyFWRbvzE-86" target="FfZv3YG9JdOCyFWRbvzE-4">
          <mxGeometry relative="1" as="geometry" />
        </mxCell>
        <mxCell id="FfZv3YG9JdOCyFWRbvzE-86" value="&lt;b&gt;Virtualization&lt;br&gt;Provider&lt;/b&gt;" style="rounded=1;whiteSpace=wrap;html=1;fillColor=#fad9d5;strokeColor=#ae4132;" vertex="1" parent="1">
          <mxGeometry x="110" y="390" width="120" height="60" as="geometry" />
        </mxCell>
        <mxCell id="FfZv3YG9JdOCyFWRbvzE-92" style="edgeStyle=orthogonalEdgeStyle;rounded=0;orthogonalLoop=1;jettySize=auto;html=1;exitX=0.75;exitY=1;exitDx=0;exitDy=0;entryX=0.5;entryY=0;entryDx=0;entryDy=0;" edge="1" parent="1" source="FfZv3YG9JdOCyFWRbvzE-91" target="FfZv3YG9JdOCyFWRbvzE-68">
          <mxGeometry relative="1" as="geometry" />
        </mxCell>
        <mxCell id="FfZv3YG9JdOCyFWRbvzE-91" value="&lt;b&gt;K8S&lt;br&gt;Provider&lt;/b&gt;" style="rounded=1;whiteSpace=wrap;html=1;fillColor=#00E673;" vertex="1" parent="1">
          <mxGeometry x="370" y="390" width="120" height="60" as="geometry" />
        </mxCell>
        <mxCell id="FfZv3YG9JdOCyFWRbvzE-95" value="Day 0" style="rounded=0;whiteSpace=wrap;html=1;fillColor=#d5e8d4;strokeColor=#82b366;fontStyle=1" vertex="1" parent="1">
          <mxGeometry x="159.00034482758613" y="224.37333333333333" width="53.103448275862064" height="25.625" as="geometry" />
        </mxCell>
        <mxCell id="FfZv3YG9JdOCyFWRbvzE-100" style="edgeStyle=orthogonalEdgeStyle;rounded=0;orthogonalLoop=1;jettySize=auto;html=1;exitX=0.5;exitY=0;exitDx=0;exitDy=0;entryX=0.5;entryY=1;entryDx=0;entryDy=0;strokeWidth=2;fillColor=#f8cecc;strokeColor=#b85450;" edge="1" parent="1" source="FfZv3YG9JdOCyFWRbvzE-96" target="FfZv3YG9JdOCyFWRbvzE-21">
          <mxGeometry relative="1" as="geometry" />
        </mxCell>
        <mxCell id="FfZv3YG9JdOCyFWRbvzE-96" value="Day 2" style="rounded=0;whiteSpace=wrap;html=1;fillColor=#d5e8d4;strokeColor=#82b366;fontStyle=1" vertex="1" parent="1">
          <mxGeometry x="230.00034482758616" y="224.37333333333333" width="53.103448275862064" height="25.625" as="geometry" />
        </mxCell>
        <mxCell id="FfZv3YG9JdOCyFWRbvzE-97" value="Day N" style="rounded=0;whiteSpace=wrap;html=1;fillColor=#d5e8d4;strokeColor=#82b366;fontStyle=1" vertex="1" parent="1">
          <mxGeometry x="300.00034482758616" y="224.37333333333333" width="53.103448275862064" height="25.625" as="geometry" />
        </mxCell>
        <mxCell id="FfZv3YG9JdOCyFWRbvzE-101" style="edgeStyle=orthogonalEdgeStyle;rounded=0;orthogonalLoop=1;jettySize=auto;html=1;exitX=0.75;exitY=0;exitDx=0;exitDy=0;entryX=0.609;entryY=1;entryDx=0;entryDy=0;entryPerimeter=0;endArrow=none;endFill=0;startArrow=classic;startFill=1;strokeWidth=2;fillColor=#f8cecc;strokeColor=#b85450;" edge="1" parent="1" source="FfZv3YG9JdOCyFWRbvzE-96" target="FfZv3YG9JdOCyFWRbvzE-21">
          <mxGeometry relative="1" as="geometry" />
        </mxCell>
        <mxCell id="FfZv3YG9JdOCyFWRbvzE-105" style="edgeStyle=orthogonalEdgeStyle;rounded=0;orthogonalLoop=1;jettySize=auto;html=1;exitX=1;exitY=0.5;exitDx=0;exitDy=0;entryX=-0.003;entryY=0.787;entryDx=0;entryDy=0;entryPerimeter=0;strokeWidth=2;" edge="1" parent="1" source="FfZv3YG9JdOCyFWRbvzE-7" target="FfZv3YG9JdOCyFWRbvzE-8">
          <mxGeometry relative="1" as="geometry" />
        </mxCell>
        <mxCell id="FfZv3YG9JdOCyFWRbvzE-106" value="" style="group;fillColor=none;strokeColor=none;gradientColor=none;" vertex="1" connectable="0" parent="1">
          <mxGeometry x="440" y="220" width="110" height="120" as="geometry" />
        </mxCell>
        <mxCell id="FfZv3YG9JdOCyFWRbvzE-5" value="VIM List" style="rounded=1;whiteSpace=wrap;html=1;fillColor=#f8cecc;verticalAlign=top;fontStyle=1;movable=1;resizable=1;rotatable=1;deletable=1;editable=1;locked=0;connectable=1;strokeColor=#b85450;" vertex="1" parent="FfZv3YG9JdOCyFWRbvzE-106">
          <mxGeometry width="110" height="120" as="geometry" />
        </mxCell>
        <mxCell id="FfZv3YG9JdOCyFWRbvzE-6" value="VIM (OS)" style="rounded=1;whiteSpace=wrap;html=1;fontStyle=1;movable=1;resizable=1;rotatable=1;deletable=1;editable=1;locked=0;connectable=1;" vertex="1" parent="FfZv3YG9JdOCyFWRbvzE-106">
          <mxGeometry x="10" y="30" width="90" height="20" as="geometry" />
        </mxCell>
        <mxCell id="FfZv3YG9JdOCyFWRbvzE-25" value="VIM (Proxmox)" style="rounded=1;whiteSpace=wrap;html=1;fontStyle=1;movable=1;resizable=1;rotatable=1;deletable=1;editable=1;locked=0;connectable=1;" vertex="1" parent="FfZv3YG9JdOCyFWRbvzE-106">
          <mxGeometry x="10" y="50" width="90" height="20" as="geometry" />
        </mxCell>
        <mxCell id="FfZv3YG9JdOCyFWRbvzE-28" value="..." style="rounded=1;whiteSpace=wrap;html=1;fontStyle=1;movable=1;resizable=1;rotatable=1;deletable=1;editable=1;locked=0;connectable=1;" vertex="1" parent="FfZv3YG9JdOCyFWRbvzE-106">
          <mxGeometry x="10" y="70" width="90" height="20" as="geometry" />
        </mxCell>
        <mxCell id="FfZv3YG9JdOCyFWRbvzE-29" value="VIM (OS)" style="rounded=1;whiteSpace=wrap;html=1;fontStyle=1;movable=1;resizable=1;rotatable=1;deletable=1;editable=1;locked=0;connectable=1;" vertex="1" parent="FfZv3YG9JdOCyFWRbvzE-106">
          <mxGeometry x="10" y="90" width="90" height="20" as="geometry" />
        </mxCell>
        <mxCell id="FfZv3YG9JdOCyFWRbvzE-107" value="" style="group" vertex="1" connectable="0" parent="1">
          <mxGeometry x="560" y="220" width="110" height="120" as="geometry" />
        </mxCell>
        <mxCell id="FfZv3YG9JdOCyFWRbvzE-108" value="K8S List" style="rounded=1;whiteSpace=wrap;html=1;fillColor=#cdeb8b;verticalAlign=top;fontStyle=1;movable=1;resizable=1;rotatable=1;deletable=1;editable=1;locked=0;connectable=1;strokeColor=#36393d;" vertex="1" parent="FfZv3YG9JdOCyFWRbvzE-107">
          <mxGeometry y="30" width="110" height="90" as="geometry" />
        </mxCell>
        <mxCell id="FfZv3YG9JdOCyFWRbvzE-109" value="K8S - 0" style="rounded=1;whiteSpace=wrap;html=1;fontStyle=1;movable=1;resizable=1;rotatable=1;deletable=1;editable=1;locked=0;connectable=1;" vertex="1" parent="FfZv3YG9JdOCyFWRbvzE-107">
          <mxGeometry x="10" y="50" width="90" height="20" as="geometry" />
        </mxCell>
        <mxCell id="FfZv3YG9JdOCyFWRbvzE-111" value="..." style="rounded=1;whiteSpace=wrap;html=1;fontStyle=1;movable=1;resizable=1;rotatable=1;deletable=1;editable=1;locked=0;connectable=1;" vertex="1" parent="FfZv3YG9JdOCyFWRbvzE-107">
          <mxGeometry x="10" y="70" width="90" height="20" as="geometry" />
        </mxCell>
        <mxCell id="FfZv3YG9JdOCyFWRbvzE-112" value="K8S - N" style="rounded=1;whiteSpace=wrap;html=1;fontStyle=1;movable=1;resizable=1;rotatable=1;deletable=1;editable=1;locked=0;connectable=1;" vertex="1" parent="FfZv3YG9JdOCyFWRbvzE-107">
          <mxGeometry x="10" y="90" width="90" height="20" as="geometry" />
        </mxCell>
        <mxCell id="FfZv3YG9JdOCyFWRbvzE-137" value="" style="group" vertex="1" connectable="0" parent="1">
          <mxGeometry x="560" y="140" width="110" height="100" as="geometry" />
        </mxCell>
        <mxCell id="FfZv3YG9JdOCyFWRbvzE-127" value="Phy Dev List" style="rounded=1;whiteSpace=wrap;html=1;fillColor=#cdeb8b;verticalAlign=top;fontStyle=1;movable=1;resizable=1;rotatable=1;deletable=1;editable=1;locked=0;connectable=1;strokeColor=#36393d;" vertex="1" parent="FfZv3YG9JdOCyFWRbvzE-137">
          <mxGeometry width="110" height="100" as="geometry" />
        </mxCell>
        <mxCell id="FfZv3YG9JdOCyFWRbvzE-128" value="Liteon 1" style="rounded=1;whiteSpace=wrap;html=1;fontStyle=1;movable=1;resizable=1;rotatable=1;deletable=1;editable=1;locked=0;connectable=1;" vertex="1" parent="FfZv3YG9JdOCyFWRbvzE-137">
          <mxGeometry x="10" y="42.85714285714286" width="90" height="14.285714285714286" as="geometry" />
        </mxCell>
        <mxCell id="FfZv3YG9JdOCyFWRbvzE-129" value="..." style="rounded=1;whiteSpace=wrap;html=1;fontStyle=1;movable=1;resizable=1;rotatable=1;deletable=1;editable=1;locked=0;connectable=1;" vertex="1" parent="FfZv3YG9JdOCyFWRbvzE-137">
          <mxGeometry x="10" y="57.142857142857146" width="90" height="14.285714285714286" as="geometry" />
        </mxCell>
        <mxCell id="FfZv3YG9JdOCyFWRbvzE-130" value="Amarisoft 3" style="rounded=1;whiteSpace=wrap;html=1;fontStyle=1;movable=1;resizable=1;rotatable=1;deletable=1;editable=1;locked=0;connectable=1;" vertex="1" parent="FfZv3YG9JdOCyFWRbvzE-137">
          <mxGeometry x="10" y="71.42857142857143" width="90" height="14.285714285714286" as="geometry" />
        </mxCell>
        <mxCell id="FfZv3YG9JdOCyFWRbvzE-140" value="Net List" style="rounded=1;whiteSpace=wrap;html=1;fillColor=#66FFFF;" vertex="1" parent="1">
          <mxGeometry x="440" y="180" width="110" height="30" as="geometry" />
        </mxCell>
        <mxCell id="FfZv3YG9JdOCyFWRbvzE-141" value="Metric Server List" style="rounded=1;whiteSpace=wrap;html=1;fillColor=#FF3399;strokeColor=#36393d;" vertex="1" parent="1">
          <mxGeometry x="440" y="140" width="110" height="30" as="geometry" />
        </mxCell>
        <mxCell id="FfZv3YG9JdOCyFWRbvzE-145" style="edgeStyle=orthogonalEdgeStyle;rounded=0;orthogonalLoop=1;jettySize=auto;html=1;exitX=0.5;exitY=0;exitDx=0;exitDy=0;entryX=0.659;entryY=1.022;entryDx=0;entryDy=0;entryPerimeter=0;startArrow=classic;startFill=1;endArrow=none;endFill=0;strokeWidth=3;" edge="1" parent="1" source="FfZv3YG9JdOCyFWRbvzE-8" target="FfZv3YG9JdOCyFWRbvzE-9">
          <mxGeometry relative="1" as="geometry" />
        </mxCell>
        <mxCell id="FfZv3YG9JdOCyFWRbvzE-146" style="edgeStyle=orthogonalEdgeStyle;rounded=0;orthogonalLoop=1;jettySize=auto;html=1;exitX=0.5;exitY=0;exitDx=0;exitDy=0;startArrow=classic;startFill=1;endArrow=none;endFill=0;strokeWidth=3;" edge="1" parent="1" source="FfZv3YG9JdOCyFWRbvzE-21">
          <mxGeometry relative="1" as="geometry">
            <mxPoint x="257" y="60" as="targetPoint" />
          </mxGeometry>
        </mxCell>
      </root>
    </mxGraphModel>
  </diagram>
</mxfile>
